<?xml version="1.0" standalone="no"?>
<!DOCTYPE svg PUBLIC "-//W3C//DTD SVG 20010904//EN"
 "http://www.w3.org/TR/2001/REC-SVG-20010904/DTD/svg10.dtd">
<svg version="1.0" xmlns="http://www.w3.org/2000/svg"
 width="1080.000000pt" height="1080.000000pt" viewBox="0 0 1080.000000 1080.000000"
 preserveAspectRatio="xMidYMid meet">
<metadata>
Created by potrace 1.14, written by Peter Selinger 2001-2017
</metadata>
<g transform="translate(0.000000,1080.000000) scale(0.100000,-0.100000)"
fill="#000000" stroke="none">
<path d="M5158 9715 c-1 -1 -48 -6 -102 -9 -55 -4 -109 -9 -120 -11 -12 -2
-43 -7 -71 -10 -83 -9 -127 -15 -187 -25 -32 -6 -69 -12 -82 -14 -52 -9 -272
-58 -296 -66 -14 -5 -59 -18 -100 -30 -302 -87 -640 -227 -878 -364 -35 -20
-66 -36 -68 -36 -10 0 -228 -139 -319 -203 -108 -76 -305 -229 -370 -287 -183
-163 -338 -321 -471 -480 -498 -595 -811 -1266 -949 -2035 -8 -44 -16 -96 -19
-115 -2 -19 -7 -51 -10 -70 -36 -225 -43 -833 -11 -1020 2 -14 6 -50 10 -80 3
-30 7 -66 9 -80 3 -14 12 -70 21 -125 23 -140 67 -325 116 -490 23 -77 44
-149 47 -160 2 -11 8 -24 12 -30 5 -5 15 -32 23 -60 23 -75 120 -302 192 -444
200 -400 455 -759 768 -1081 134 -138 335 -319 421 -380 12 -8 31 -24 44 -35
54 -47 277 -199 395 -271 160 -96 391 -213 562 -286 113 -49 408 -154 456
-163 9 -2 46 -13 84 -24 37 -12 77 -23 89 -25 11 -2 62 -13 111 -25 87 -19
288 -53 390 -66 28 -4 64 -8 80 -10 210 -27 683 -27 920 -1 39 5 133 16 165
20 310 42 742 160 1025 281 36 16 82 34 95 38 3 1 66 32 141 68 230 113 421
226 629 373 74 52 226 170 240 186 3 3 19 16 35 29 101 77 335 307 475 466 58
65 194 238 230 291 19 27 36 51 39 54 10 8 155 230 187 285 194 334 337 665
439 1020 18 66 36 131 39 145 3 14 17 78 31 143 67 312 90 539 90 897 0 258
-8 391 -31 555 -3 22 -8 54 -10 70 -18 132 -18 132 -55 300 -42 191 -133 501
-179 610 -5 11 -32 76 -61 145 -93 223 -224 471 -355 671 -53 81 -217 310
-237 331 -7 7 -41 49 -77 92 -233 288 -579 596 -932 831 -86 58 -158 105 -161
105 -2 0 -44 23 -93 51 -254 147 -629 305 -909 384 -33 9 -80 23 -105 31 -100
30 -344 80 -490 99 -25 3 -52 8 -60 10 -8 2 -49 6 -90 10 -41 3 -88 8 -105 11
-35 5 -601 14 -607 9z"/>
</g>
</svg>
